# xmcd CD database file
#
# Track frame offsets:
#	150
#	13043
#	25405
#	41689
#	53566
#	66284
#	78121
#	90344
#	102362
#	111160
#	126754
#	145695
#	157510
#	172575
#
# Disc length: 2465 seconds
#
# Revision: 2
# Processed by: cddbd v1.5.2PL0 Copyright (c) Steve Scherf et al.
# Submitted via: CDex 1.51
#
DISCID=9c099f0e
DTITLE=Tina Turner - O Melhor de Tina Turner
DYEAR=1900
DGENRE=Blues
TTITLE0=Get Back
TTITLE1=Ya Ya
TTITLE2=Lay It Down
TTITLE3=Stand By Your Man
TTITLE4=Shame,Shame,Shame
TTITLE5=Louie Louie
TTITLE6=Stagger Lee
TTITLE7=Knock On Wood
TTITLE8=The Locomotion
TTITLE9=If This Was Our Last Time
TTITLE10=Ode To Billy Joe
TTITLE11=When I Lost My Baby
TTITLE12=Good Hearted
TTITLE13=If It's Alright With You
EXTD=
EXTT0=
EXTT1=
EXTT2=
EXTT3=
EXTT4=
EXTT5=
EXTT6=
EXTT7=
EXTT8=
EXTT9=
EXTT10=
EXTT11=
EXTT12=
EXTT13=
PLAYORDER=
